<?xml version="1.0" encoding="UTF-8" standalone="no"?>
<!-- Created with Inkscape (http://www.inkscape.org/) -->
<svg
   xmlns:dc="http://purl.org/dc/elements/1.1/"
   xmlns:cc="http://creativecommons.org/ns#"
   xmlns:rdf="http://www.w3.org/1999/02/22-rdf-syntax-ns#"
   xmlns:svg="http://www.w3.org/2000/svg"
   xmlns="http://www.w3.org/2000/svg"
   xmlns:xlink="http://www.w3.org/1999/xlink"
   xmlns:sodipodi="http://sodipodi.sourceforge.net/DTD/sodipodi-0.dtd"
   xmlns:inkscape="http://www.inkscape.org/namespaces/inkscape"
   width="48.000000px"
   height="48.000000px"
   id="svg3077"
   sodipodi:version="0.32"
   inkscape:version="0.46"
   sodipodi:docbase="/home/jf/Xfce/xfburn/branches/libburn_trial/icons/scalable"
   sodipodi:docname="stock_xfburn-audio_cd.svg"
   inkscape:output_extension="org.inkscape.output.svg.inkscape"
   inkscape:export-filename="/home/squisher/src/xfburn/xfburn-official/trunk/icons/16x16/stock_xfburn-audio-cd.png"
   inkscape:export-xdpi="30"
   inkscape:export-ydpi="30">
  <defs
     id="defs3">
    <linearGradient
       inkscape:collect="always"
       id="linearGradient2861">
      <stop
         style="stop-color:#000000;stop-opacity:1;"
         offset="0"
         id="stop2863" />
      <stop
         style="stop-color:#959595;stop-opacity:1.0000000"
         offset="1"
         id="stop2865" />
    </linearGradient>
    <linearGradient
       inkscape:collect="always"
       xlink:href="#linearGradient2861"
       id="linearGradient2885"
       gradientUnits="userSpaceOnUse"
       gradientTransform="translate(9.009143,-1.079904)"
       x1="36.44677"
       y1="120.76648"
       x2="93.931129"
       y2="23.64933" />
    <linearGradient
       inkscape:collect="always"
       id="linearGradient10794">
      <stop
         style="stop-color:#989898;stop-opacity:1;"
         offset="0"
         id="stop10796" />
      <stop
         style="stop-color:#989898;stop-opacity:0;"
         offset="1"
         id="stop10798" />
    </linearGradient>
    <linearGradient
       inkscape:collect="always"
       xlink:href="#linearGradient10794"
       id="linearGradient2883"
       gradientUnits="userSpaceOnUse"
       gradientTransform="translate(8.756123,-0.911224)"
       x1="46.517174"
       y1="14.790077"
       x2="46.517174"
       y2="138.12024" />
    <linearGradient
       inkscape:collect="always"
       id="linearGradient10023">
      <stop
         style="stop-color:#bdbdbd;stop-opacity:1;"
         offset="0"
         id="stop10025" />
      <stop
         style="stop-color:#bdbdbd;stop-opacity:0;"
         offset="1"
         id="stop10027" />
    </linearGradient>
    <linearGradient
       inkscape:collect="always"
       xlink:href="#linearGradient10023"
       id="linearGradient2881"
       gradientUnits="userSpaceOnUse"
       gradientTransform="translate(9.233222,-0.911224)"
       x1="78.296486"
       y1="9.1397552"
       x2="76.947044"
       y2="32.225971" />
    <linearGradient
       inkscape:collect="always"
       id="linearGradient10782">
      <stop
         style="stop-color:#989898;stop-opacity:1;"
         offset="0"
         id="stop10784" />
      <stop
         style="stop-color:#989898;stop-opacity:0;"
         offset="1"
         id="stop10786" />
    </linearGradient>
    <radialGradient
       inkscape:collect="always"
       xlink:href="#linearGradient10782"
       id="radialGradient2879"
       gradientUnits="userSpaceOnUse"
       gradientTransform="matrix(0.507302,2.992059,-2.503033,0.629017,307.6498,-19.1405)"
       cx="16.886499"
       cy="97.809586"
       fx="16.886499"
       fy="97.809586"
       r="7.3950381" />
    <linearGradient
       inkscape:collect="always"
       id="linearGradient10765">
      <stop
         style="stop-color:#989898;stop-opacity:1;"
         offset="0"
         id="stop10767" />
      <stop
         style="stop-color:#989898;stop-opacity:0;"
         offset="1"
         id="stop10769" />
    </linearGradient>
    <radialGradient
       inkscape:collect="always"
       xlink:href="#linearGradient10765"
       id="radialGradient2877"
       gradientUnits="userSpaceOnUse"
       gradientTransform="matrix(2.277654,1.814482,-1.554691,2.313904,142.4194,-168.8005)"
       cx="16.073729"
       cy="98.385017"
       fx="16.073729"
       fy="98.385017"
       r="7.3950381" />
    <inkscape:perspective
       sodipodi:type="inkscape:persp3d"
       inkscape:vp_x="0 : 24 : 1"
       inkscape:vp_y="0 : 1000 : 0"
       inkscape:vp_z="48 : 24 : 1"
       inkscape:persp3d-origin="24 : 16 : 1"
       id="perspective3196" />
    <linearGradient
       id="linearGradient2994">
      <stop
         id="stop2996"
         offset="0"
         style="stop-color:#000000;stop-opacity:1;" />
      <stop
         id="stop2998"
         offset="1"
         style="stop-color:#c9c9c9;stop-opacity:1;" />
    </linearGradient>
    <linearGradient
       id="linearGradient2974">
      <stop
         id="stop2976"
         offset="0"
         style="stop-color:#c1c1c1;stop-opacity:1;" />
      <stop
         id="stop2978"
         offset="1"
         style="stop-color:#acacac;stop-opacity:1;" />
    </linearGradient>
    <linearGradient
       id="linearGradient2966">
      <stop
         id="stop2968"
         offset="0"
         style="stop-color:#ffd1d1;stop-opacity:1;" />
      <stop
         style="stop-color:#ff1d1d;stop-opacity:1;"
         offset="0.5"
         id="stop3006" />
      <stop
         id="stop2970"
         offset="1"
         style="stop-color:#6f0000;stop-opacity:1;" />
    </linearGradient>
    <linearGradient
       inkscape:collect="always"
       id="linearGradient23419">
      <stop
         style="stop-color:#000000;stop-opacity:1;"
         offset="0"
         id="stop23421" />
      <stop
         style="stop-color:#000000;stop-opacity:0;"
         offset="1"
         id="stop23423" />
    </linearGradient>
    <linearGradient
       id="linearGradient3435"
       gradientUnits="userSpaceOnUse"
       x1="12.2744"
       y1="32.4165"
       x2="35.3912"
       y2="14.2033">
      <stop
         offset="0.0000000"
         style="stop-color:#ffffc8;stop-opacity:1.0000000;"
         id="stop3437" />
      <stop
         offset="1.0000000"
         style="stop-color:#9a91ef;stop-opacity:0.0000000;"
         id="stop3439" />
    </linearGradient>
    <linearGradient
       y2="14.2033"
       x2="35.3912"
       y1="32.4165"
       x1="12.2744"
       gradientUnits="userSpaceOnUse"
       id="linearGradient3421">
      <stop
         id="stop3423"
         style="stop-color:#ffffff;stop-opacity:1.0000000;"
         offset="0.0000000" />
      <stop
         id="stop3427"
         style="stop-color:#b8c04c;stop-opacity:0.0000000;"
         offset="1.0000000" />
    </linearGradient>
    <linearGradient
       id="linearGradient3406"
       gradientUnits="userSpaceOnUse"
       x1="12.2744"
       y1="32.4165"
       x2="35.3912"
       y2="14.2033">
      <stop
         offset="0.0000000"
         style="stop-color:#b307ff;stop-opacity:0.82178217;"
         id="stop3408" />
      <stop
         offset="1.0000000"
         style="stop-color:#f0ff8b;stop-opacity:0.64356434;"
         id="stop3410" />
      <stop
         offset="1.0000000"
         style="stop-color:#ffffff;stop-opacity:0.0000000;"
         id="stop3412" />
    </linearGradient>
    <linearGradient
       y2="14.2033"
       x2="35.3912"
       y1="32.4165"
       x1="12.2744"
       gradientUnits="userSpaceOnUse"
       id="linearGradient3394">
      <stop
         id="stop3396"
         style="stop-color:#fff307;stop-opacity:1.0000000;"
         offset="0.0000000" />
      <stop
         id="stop3398"
         style="stop-color:#166eff;stop-opacity:1.0000000;"
         offset="0.50000000" />
      <stop
         id="stop3400"
         style="stop-color:#ffffff;stop-opacity:0.0000000;"
         offset="1.0000000" />
    </linearGradient>
    <linearGradient
       inkscape:collect="always"
       id="linearGradient6036">
      <stop
         style="stop-color:#ffffff;stop-opacity:1;"
         offset="0"
         id="stop6038" />
      <stop
         style="stop-color:#ffffff;stop-opacity:0;"
         offset="1"
         id="stop6040" />
    </linearGradient>
    <linearGradient
       inkscape:collect="always"
       id="linearGradient6028">
      <stop
         style="stop-color:#ffffff;stop-opacity:1;"
         offset="0"
         id="stop6030" />
      <stop
         style="stop-color:#ffffff;stop-opacity:0;"
         offset="1"
         id="stop6032" />
    </linearGradient>
    <linearGradient
       id="linearGradient4236">
      <stop
         style="stop-color:#ffffff;stop-opacity:0.32673267;"
         offset="0.0000000"
         id="stop4238" />
      <stop
         style="stop-color:#ffffff;stop-opacity:0.60396039;"
         offset="1.0000000"
         id="stop4240" />
    </linearGradient>
    <linearGradient
       id="aigrd2"
       gradientUnits="userSpaceOnUse"
       x1="12.2744"
       y1="32.4165"
       x2="35.3912"
       y2="14.2033">
      <stop
         offset="0"
         style="stop-color:#FBFBFB"
         id="stop3043" />
      <stop
         offset="0.5"
         style="stop-color:#B6B6B6"
         id="stop3045" />
      <stop
         offset="1"
         style="stop-color:#E4E4E4"
         id="stop3047" />
    </linearGradient>
    <linearGradient
       id="aigrd1"
       gradientUnits="userSpaceOnUse"
       x1="14.9966"
       y1="11.1885"
       x2="32.511"
       y2="34.3075">
      <stop
         offset="0"
         style="stop-color:#EBEBEB"
         id="stop3034" />
      <stop
         offset="0.5"
         style="stop-color:#FFFFFF"
         id="stop3036" />
      <stop
         offset="1"
         style="stop-color:#EBEBEB"
         id="stop3038" />
    </linearGradient>
    <linearGradient
       inkscape:collect="always"
       xlink:href="#aigrd1"
       id="linearGradient3912"
       gradientUnits="userSpaceOnUse"
       x1="14.9966"
       y1="11.1885"
       x2="32.511"
       y2="34.3075"
       gradientTransform="matrix(1.190476,0.000000,0.000000,1.190476,-4.224424,-2.500000)" />
    <linearGradient
       inkscape:collect="always"
       xlink:href="#linearGradient4236"
       id="linearGradient4222"
       x1="21.125000"
       y1="14.625000"
       x2="29.000000"
       y2="28.000000"
       gradientUnits="userSpaceOnUse"
       gradientTransform="matrix(1.250000,0.000000,0.000000,1.250000,-5.652995,-2.604165)" />
    <linearGradient
       inkscape:collect="always"
       xlink:href="#linearGradient4236"
       id="linearGradient4224"
       x1="21.125000"
       y1="14.625000"
       x2="29.000000"
       y2="28.000000"
       gradientUnits="userSpaceOnUse"
       gradientTransform="matrix(1.250000,0.000000,0.000000,1.250000,-5.652995,-2.604165)" />
    <linearGradient
       inkscape:collect="always"
       xlink:href="#aigrd2"
       id="linearGradient4242"
       gradientUnits="userSpaceOnUse"
       gradientTransform="matrix(1.190476,0.000000,0.000000,1.190476,-4.224424,-2.500001)"
       x1="12.2744"
       y1="32.4165"
       x2="35.3912"
       y2="14.2033" />
    <linearGradient
       inkscape:collect="always"
       xlink:href="#linearGradient6028"
       id="linearGradient6034"
       x1="28.702885"
       y1="31.494707"
       x2="17.742729"
       y2="18.366575"
       gradientUnits="userSpaceOnUse" />
    <linearGradient
       inkscape:collect="always"
       xlink:href="#linearGradient6036"
       id="linearGradient6042"
       x1="10.501720"
       y1="3.6100161"
       x2="48.798885"
       y2="54.698483"
       gradientUnits="userSpaceOnUse" />
    <radialGradient
       gradientTransform="matrix(0.848684,0.958020,-0.782119,0.692834,18.69147,-20.52578)"
       gradientUnits="userSpaceOnUse"
       r="21.333334"
       fy="27.569166"
       fx="37.751469"
       cy="27.569166"
       cx="37.751469"
       id="radialGradient3392"
       xlink:href="#linearGradient3394"
       inkscape:collect="always" />
    <radialGradient
       r="21.333334"
       fy="48.238270"
       fx="53.556889"
       cy="48.238270"
       cx="53.556889"
       gradientTransform="matrix(0.158450,-0.158988,0.432907,0.431441,-2.723645,15.00107)"
       gradientUnits="userSpaceOnUse"
       id="radialGradient3429"
       xlink:href="#linearGradient3421"
       inkscape:collect="always" />
    <radialGradient
       r="21.333334"
       fy="33.377594"
       fx="16.885271"
       cy="33.377594"
       cx="16.885271"
       gradientTransform="matrix(5.184267e-3,-0.122860,0.544548,2.297824e-2,0.957234,26.30756)"
       gradientUnits="userSpaceOnUse"
       id="radialGradient3433"
       xlink:href="#linearGradient3435"
       inkscape:collect="always" />
    <radialGradient
       r="21.333334"
       fy="21.618015"
       fx="35.511295"
       cy="21.618015"
       cx="35.511295"
       gradientTransform="matrix(0.105916,-1.914240e-2,0.104789,0.579807,17.13693,7.115158)"
       gradientUnits="userSpaceOnUse"
       id="radialGradient3443"
       xlink:href="#linearGradient3435"
       inkscape:collect="always" />
    <radialGradient
       gradientTransform="matrix(-5.048220e-2,1.387847e-2,-0.128440,-0.467196,35.41257,39.44172)"
       r="21.333334"
       fy="23.914305"
       fx="133.84108"
       cy="23.914305"
       cx="133.84108"
       gradientUnits="userSpaceOnUse"
       id="radialGradient3447"
       xlink:href="#linearGradient3435"
       inkscape:collect="always" />
    <radialGradient
       r="21.333334"
       fy="38.807304"
       fx="26.137741"
       cy="38.807304"
       cx="26.137741"
       gradientTransform="matrix(0.769501,-1.242500,0.670300,0.415141,-21.77857,41.36563)"
       gradientUnits="userSpaceOnUse"
       id="radialGradient3449"
       xlink:href="#linearGradient3406"
       inkscape:collect="always" />
    <linearGradient
       inkscape:collect="always"
       xlink:href="#aigrd1"
       id="linearGradient23343"
       gradientUnits="userSpaceOnUse"
       gradientTransform="matrix(1.190476,0,0,1.190476,-4.224424,-2.5)"
       x1="14.9966"
       y1="11.1885"
       x2="32.511"
       y2="34.3075" />
    <linearGradient
       inkscape:collect="always"
       xlink:href="#aigrd2"
       id="linearGradient23345"
       gradientUnits="userSpaceOnUse"
       gradientTransform="matrix(1.190476,0,0,1.190476,-4.224424,-2.500001)"
       x1="12.2744"
       y1="32.4165"
       x2="35.3912"
       y2="14.2033" />
    <linearGradient
       inkscape:collect="always"
       xlink:href="#linearGradient4236"
       id="linearGradient23347"
       gradientUnits="userSpaceOnUse"
       gradientTransform="matrix(1.25,0,0,1.25,-5.652995,-2.604165)"
       x1="21.125000"
       y1="14.625000"
       x2="29.000000"
       y2="28.000000" />
    <linearGradient
       inkscape:collect="always"
       xlink:href="#linearGradient4236"
       id="linearGradient23349"
       gradientUnits="userSpaceOnUse"
       gradientTransform="matrix(1.25,0,0,1.25,-5.652995,-2.604165)"
       x1="21.125000"
       y1="14.625000"
       x2="29.000000"
       y2="28.000000" />
    <linearGradient
       inkscape:collect="always"
       xlink:href="#linearGradient6036"
       id="linearGradient23351"
       gradientUnits="userSpaceOnUse"
       x1="10.501720"
       y1="3.6100161"
       x2="48.798885"
       y2="54.698483" />
    <linearGradient
       inkscape:collect="always"
       xlink:href="#linearGradient6028"
       id="linearGradient23353"
       gradientUnits="userSpaceOnUse"
       x1="28.702885"
       y1="31.494707"
       x2="17.742729"
       y2="18.366575" />
    <radialGradient
       inkscape:collect="always"
       xlink:href="#linearGradient3394"
       id="radialGradient23355"
       gradientUnits="userSpaceOnUse"
       gradientTransform="matrix(0.848684,0.95802,-0.782119,0.692834,18.69147,-20.52578)"
       cx="37.751469"
       cy="27.569166"
       fx="37.751469"
       fy="27.569166"
       r="21.333334" />
    <radialGradient
       inkscape:collect="always"
       xlink:href="#linearGradient3406"
       id="radialGradient23357"
       gradientUnits="userSpaceOnUse"
       gradientTransform="matrix(0.769501,-1.2425,0.6703,0.415141,-21.77857,41.36563)"
       cx="26.137741"
       cy="38.807304"
       fx="26.137741"
       fy="38.807304"
       r="21.333334" />
    <radialGradient
       inkscape:collect="always"
       xlink:href="#linearGradient3421"
       id="radialGradient23359"
       gradientUnits="userSpaceOnUse"
       gradientTransform="matrix(0.15845,-0.158988,0.432907,0.431441,-2.723645,15.00107)"
       cx="53.556889"
       cy="48.238270"
       fx="53.556889"
       fy="48.238270"
       r="21.333334" />
    <radialGradient
       inkscape:collect="always"
       xlink:href="#linearGradient3435"
       id="radialGradient23361"
       gradientUnits="userSpaceOnUse"
       gradientTransform="matrix(5.184267e-3,-0.12286,0.544548,2.297824e-2,0.957234,26.30756)"
       cx="16.885271"
       cy="33.377594"
       fx="16.885271"
       fy="33.377594"
       r="21.333334" />
    <radialGradient
       inkscape:collect="always"
       xlink:href="#linearGradient3435"
       id="radialGradient23363"
       gradientUnits="userSpaceOnUse"
       gradientTransform="matrix(0.105916,-1.91424e-2,0.104789,0.579807,17.13693,7.115158)"
       cx="35.511295"
       cy="21.618015"
       fx="35.511295"
       fy="21.618015"
       r="21.333334" />
    <radialGradient
       inkscape:collect="always"
       xlink:href="#linearGradient3435"
       id="radialGradient23365"
       gradientUnits="userSpaceOnUse"
       gradientTransform="matrix(-5.04822e-2,1.387847e-2,-0.12844,-0.467196,35.41257,39.44172)"
       cx="133.84108"
       cy="23.914305"
       fx="133.84108"
       fy="23.914305"
       r="21.333334" />
    <radialGradient
       inkscape:collect="always"
       xlink:href="#linearGradient3435"
       id="radialGradient23368"
       gradientUnits="userSpaceOnUse"
       gradientTransform="matrix(-5.04822e-2,1.387847e-2,-0.12844,-0.467196,35.41257,39.44172)"
       cx="133.84108"
       cy="23.914305"
       fx="133.84108"
       fy="23.914305"
       r="21.333334" />
    <radialGradient
       inkscape:collect="always"
       xlink:href="#linearGradient3435"
       id="radialGradient23371"
       gradientUnits="userSpaceOnUse"
       gradientTransform="matrix(0.105916,-1.91424e-2,0.104789,0.579807,17.13693,7.115158)"
       cx="35.511295"
       cy="21.618015"
       fx="35.511295"
       fy="21.618015"
       r="21.333334" />
    <radialGradient
       inkscape:collect="always"
       xlink:href="#linearGradient3435"
       id="radialGradient23374"
       gradientUnits="userSpaceOnUse"
       gradientTransform="matrix(5.184267e-3,-0.12286,0.544548,2.297824e-2,0.957234,26.30756)"
       cx="16.885271"
       cy="33.377594"
       fx="16.885271"
       fy="33.377594"
       r="21.333334" />
    <radialGradient
       inkscape:collect="always"
       xlink:href="#linearGradient3421"
       id="radialGradient23377"
       gradientUnits="userSpaceOnUse"
       gradientTransform="matrix(0.15845,-0.158988,0.432907,0.431441,-2.723645,15.00107)"
       cx="53.556889"
       cy="48.238270"
       fx="53.556889"
       fy="48.238270"
       r="21.333334" />
    <radialGradient
       inkscape:collect="always"
       xlink:href="#linearGradient3406"
       id="radialGradient23380"
       gradientUnits="userSpaceOnUse"
       gradientTransform="matrix(0.769501,-1.2425,0.6703,0.415141,-21.77857,41.36563)"
       cx="26.137741"
       cy="38.807304"
       fx="26.137741"
       fy="38.807304"
       r="21.333334" />
    <radialGradient
       inkscape:collect="always"
       xlink:href="#linearGradient3394"
       id="radialGradient23383"
       gradientUnits="userSpaceOnUse"
       gradientTransform="matrix(0.848684,0.95802,-0.782119,0.692834,18.69147,-20.52578)"
       cx="37.751469"
       cy="27.569166"
       fx="37.751469"
       fy="27.569166"
       r="21.333334" />
    <linearGradient
       inkscape:collect="always"
       xlink:href="#linearGradient6036"
       id="linearGradient23387"
       gradientUnits="userSpaceOnUse"
       x1="10.501720"
       y1="3.6100161"
       x2="48.798885"
       y2="54.698483" />
    <linearGradient
       inkscape:collect="always"
       xlink:href="#linearGradient4236"
       id="linearGradient23390"
       gradientUnits="userSpaceOnUse"
       gradientTransform="matrix(1.25,0,0,1.25,-5.652995,-2.604165)"
       x1="21.125000"
       y1="14.625000"
       x2="29.000000"
       y2="28.000000" />
    <linearGradient
       inkscape:collect="always"
       xlink:href="#linearGradient4236"
       id="linearGradient23393"
       gradientUnits="userSpaceOnUse"
       gradientTransform="matrix(1.25,0,0,1.25,-5.652995,-2.604165)"
       x1="21.125000"
       y1="14.625000"
       x2="29.000000"
       y2="28.000000" />
    <linearGradient
       inkscape:collect="always"
       xlink:href="#aigrd2"
       id="linearGradient23397"
       gradientUnits="userSpaceOnUse"
       gradientTransform="matrix(1.190476,0,0,1.190476,-4.224424,-2.500001)"
       x1="12.2744"
       y1="32.4165"
       x2="35.3912"
       y2="14.2033" />
    <linearGradient
       inkscape:collect="always"
       xlink:href="#aigrd1"
       id="linearGradient23400"
       gradientUnits="userSpaceOnUse"
       gradientTransform="matrix(1.190476,0,0,1.190476,-4.224424,-2.5)"
       x1="14.9966"
       y1="11.1885"
       x2="32.511"
       y2="34.3075" />
    <radialGradient
       inkscape:collect="always"
       xlink:href="#linearGradient23419"
       id="radialGradient23425"
       cx="23.334524"
       cy="41.63604"
       fx="23.334524"
       fy="41.63604"
       r="22.627417"
       gradientTransform="matrix(1,0,0,0.25,0,31.22703)"
       gradientUnits="userSpaceOnUse" />
  </defs>
  <sodipodi:namedview
     id="base"
     pagecolor="#ffffff"
     bordercolor="#666666"
     borderopacity="0.25490196"
     inkscape:pageopacity="0.0"
     inkscape:pageshadow="2"
     inkscape:zoom="12.333333"
     inkscape:cx="21.05949"
     inkscape:cy="27.243243"
     inkscape:current-layer="layer1"
     showgrid="false"
     inkscape:grid-bbox="true"
     inkscape:document-units="px"
     inkscape:window-width="872"
     inkscape:window-height="804"
     inkscape:window-x="408"
     inkscape:window-y="201"
     inkscape:showpageshadow="false" />
  <metadata
     id="metadata4">
    <rdf:RDF>
      <cc:Work
         rdf:about="">
        <dc:format>image/svg+xml</dc:format>
        <dc:type
           rdf:resource="http://purl.org/dc/dcmitype/StillImage" />
        <dc:title>Media CD-ROM</dc:title>
        <dc:creator>
          <cc:Agent>
            <dc:title>Jakub Steiner</dc:title>
          </cc:Agent>
        </dc:creator>
        <dc:source>http://jimmac.musichall.cz</dc:source>
        <dc:subject>
          <rdf:Bag>
            <rdf:li>cdrom</rdf:li>
            <rdf:li>media</rdf:li>
            <rdf:li>removable</rdf:li>
            <rdf:li>cd</rdf:li>
            <rdf:li>audio</rdf:li>
          </rdf:Bag>
        </dc:subject>
        <cc:license
           rdf:resource="http://creativecommons.org/licenses/by-sa/2.0/" />
      </cc:Work>
      <cc:License
         rdf:about="http://creativecommons.org/licenses/by-sa/2.0/">
        <cc:permits
           rdf:resource="http://web.resource.org/cc/Reproduction" />
        <cc:permits
           rdf:resource="http://web.resource.org/cc/Distribution" />
        <cc:requires
           rdf:resource="http://web.resource.org/cc/Notice" />
        <cc:requires
           rdf:resource="http://web.resource.org/cc/Attribution" />
        <cc:permits
           rdf:resource="http://web.resource.org/cc/DerivativeWorks" />
        <cc:requires
           rdf:resource="http://web.resource.org/cc/ShareAlike" />
      </cc:License>
    </rdf:RDF>
  </metadata>
  <g
     id="layer1"
     inkscape:label="Layer 1"
     inkscape:groupmode="layer">
    <path
       sodipodi:type="arc"
       style="opacity:0.55;color:#000000;fill:url(#radialGradient23425);fill-opacity:1;fill-rule:evenodd;stroke:none;stroke-width:2;stroke-linecap:butt;stroke-linejoin:miter;marker:none;marker-start:none;marker-mid:none;marker-end:none;stroke-miterlimit:4;stroke-dasharray:none;stroke-dashoffset:0;stroke-opacity:1;visibility:visible;display:inline;overflow:visible"
       id="path23417"
       sodipodi:cx="23.334524"
       sodipodi:cy="41.63604"
       sodipodi:rx="22.627417"
       sodipodi:ry="5.6568542"
       d="M 45.961941 41.63604 A 22.627417 5.6568542 0 1 1  0.70710754,41.63604 A 22.627417 5.6568542 0 1 1  45.961941 41.63604 z"
       inkscape:r_cx="true"
       inkscape:r_cy="true"
       transform="matrix(1,0,0,1.066291,1,-2.885106)" />
    <path
       inkscape:r_cy="true"
       inkscape:r_cx="true"
       id="path3040"
       d="M 24.347006,4.1666669 C 12.799386,4.1666669 3.5136719,13.452381 3.5136719,25 C 3.5136719,36.54762 12.799386,45.833335 24.347006,45.833335 C 35.894626,45.833335 45.180341,36.54762 45.180341,25 C 45.180341,13.452381 35.894626,4.1666669 24.347006,4.1666669 L 24.347006,4.1666669 z M 24.347006,30.000001 C 21.608911,30.000001 19.347006,27.738096 19.347006,25 C 19.347006,22.261905 21.608911,20 24.347006,20 C 27.085101,20 29.347006,22.261905 29.347006,25 C 29.347006,27.738096 27.085101,30.000001 24.347006,30.000001 z "
       style="fill:url(#linearGradient23400);fill-rule:nonzero;stroke:none;stroke-miterlimit:4" />
    <path
       inkscape:r_cy="true"
       inkscape:r_cx="true"
       id="path3049"
       d="M 24.347006,4.1666665 C 12.799386,4.1666665 3.513672,13.452381 3.513672,25 C 3.513672,36.54762 12.799386,45.833335 24.347006,45.833335 C 35.894626,45.833335 45.180341,36.54762 45.180341,25 C 45.180341,13.452381 35.894626,4.1666665 24.347006,4.1666665 L 24.347006,4.1666665 z M 24.347006,30.000001 C 21.608911,30.000001 19.347006,27.738096 19.347006,25 C 19.347006,22.261905 21.608911,20 24.347006,20 C 27.085101,20 29.347006,22.261905 29.347006,25 C 29.347006,27.738096 27.085101,30.000001 24.347006,30.000001 z "
       style="fill:url(#linearGradient23397);fill-rule:nonzero;stroke:#808080;stroke-miterlimit:4;stroke-opacity:1" />
    <path
       inkscape:r_cy="true"
       inkscape:r_cx="true"
       id="path3051"
       d="M 24.347006,14.895835 C 18.70442,14.895835 14.24284,19.488638 14.24284,25 C 14.24284,30.642588 18.835644,35.104166 24.347006,35.104166 C 29.989592,35.104166 34.451172,30.511364 34.451172,25 C 34.451172,19.357414 29.858368,14.895835 24.347006,14.895835 L 24.347006,14.895835 z M 24.347006,30.511364 C 21.328879,30.511364 18.835644,28.018129 18.835644,25 C 18.835644,21.981873 21.328879,19.488638 24.347006,19.488638 C 27.365133,19.488638 29.858368,21.981873 29.858368,25 C 29.858368,28.018129 27.365133,30.511364 24.347006,30.511364 z "
       style="opacity:0.10999995;fill-rule:nonzero;stroke:none;stroke-miterlimit:4" />
    <path
       inkscape:r_cy="true"
       inkscape:r_cx="true"
       style="fill:url(#linearGradient23393);fill-opacity:1;fill-rule:nonzero;stroke:none;stroke-miterlimit:4;stroke-opacity:1"
       d="M 29.922111,5.6692337 L 26.325518,19.663896 C 27.450222,19.963413 28.349661,20.659366 28.960646,21.622438 L 41.352866,14.073153 C 38.817618,9.9434382 34.748656,6.9050853 29.922111,5.6692337 z "
       id="path3916" />
    <path
       inkscape:r_cy="true"
       inkscape:r_cx="true"
       id="path4214"
       d="M 17.307824,43.766057 L 22.043079,30.114558 C 20.946815,29.723566 20.107654,28.956005 19.577936,27.945951 L 6.6068752,34.450599 C 8.7939325,38.774811 12.599255,42.137482 17.307824,43.766057 z "
       style="fill:url(#linearGradient23390);fill-opacity:1;fill-rule:nonzero;stroke:none;stroke-miterlimit:4;stroke-opacity:1" />
    <path
       inkscape:r_cy="true"
       inkscape:r_cx="true"
       style="opacity:0.54644811;fill:none;fill-rule:nonzero;stroke:url(#linearGradient23387);stroke-miterlimit:4;stroke-opacity:1"
       d="M 24.347002,5.2023655 C 13.373458,5.2023655 4.5493711,14.026454 4.5493711,24.999997 C 4.5493711,35.973541 13.373458,44.797628 24.347002,44.797628 C 35.320546,44.797628 44.144633,35.973541 44.144633,24.999997 C 44.144633,14.026454 35.320546,5.2023655 24.347002,5.2023655 L 24.347002,5.2023655 z "
       id="path5264"
       sodipodi:nodetypes="cccccc" />
    <path
       inkscape:r_cy="true"
       inkscape:r_cx="true"
       sodipodi:type="arc"
       style="opacity:0.67213111;color:#000000;fill:none;fill-opacity:0.31638417;fill-rule:nonzero;stroke:url(#linearGradient23353);stroke-width:0.93053865;stroke-linecap:butt;stroke-linejoin:miter;marker:none;marker-start:none;marker-mid:none;marker-end:none;stroke-miterlimit:4;stroke-dashoffset:0;stroke-opacity:1;visibility:visible;display:inline;overflow:visible"
       id="path6026"
       sodipodi:cx="24.306795"
       sodipodi:cy="24.930641"
       sodipodi:rx="6.0987959"
       sodipodi:ry="6.0987959"
       d="M 30.405591 24.930641 A 6.0987959 6.0987959 0 1 1  18.207999,24.930641 A 6.0987959 6.0987959 0 1 1  30.405591 24.930641 z"
       transform="translate(8.838835e-2,8.838865e-2)" />
    <path
       inkscape:r_cy="true"
       inkscape:r_cx="true"
       style="opacity:0.1142857;fill:url(#radialGradient23383);fill-opacity:1;fill-rule:nonzero;stroke:none;stroke-miterlimit:4;stroke-opacity:1"
       d="M 24.347006,4.1666665 C 12.799386,4.1666665 3.513672,13.452381 3.513672,25 C 3.513672,36.54762 12.799386,45.833335 24.347006,45.833335 C 35.894626,45.833335 45.180341,36.54762 45.180341,25 C 45.180341,13.452381 35.894626,4.1666665 24.347006,4.1666665 L 24.347006,4.1666665 z M 24.347006,30.000001 C 21.608911,30.000001 19.347006,27.738096 19.347006,25 C 19.347006,22.261905 21.608911,20 24.347006,20 C 27.085101,20 29.347006,22.261905 29.347006,25 C 29.347006,27.738096 27.085101,30.000001 24.347006,30.000001 z "
       id="path3390" />
    <path
       inkscape:r_cy="true"
       inkscape:r_cx="true"
       id="path3404"
       d="M 24.347006,4.1666665 C 12.799386,4.1666665 3.513672,13.452381 3.513672,25 C 3.513672,36.54762 12.799386,45.833335 24.347006,45.833335 C 35.894626,45.833335 45.180341,36.54762 45.180341,25 C 45.180341,13.452381 35.894626,4.1666665 24.347006,4.1666665 L 24.347006,4.1666665 z M 24.347006,30.000001 C 21.608911,30.000001 19.347006,27.738096 19.347006,25 C 19.347006,22.261905 21.608911,20 24.347006,20 C 27.085101,20 29.347006,22.261905 29.347006,25 C 29.347006,27.738096 27.085101,30.000001 24.347006,30.000001 z "
       style="opacity:0.09714284;fill:url(#radialGradient23380);fill-opacity:1;fill-rule:nonzero;stroke:none;stroke-miterlimit:4;stroke-opacity:1" />
    <path
       inkscape:r_cy="true"
       inkscape:r_cx="true"
       style="opacity:0.71428576;fill:url(#radialGradient23377);fill-opacity:1;fill-rule:nonzero;stroke:none;stroke-miterlimit:4;stroke-opacity:1"
       d="M 24.347006,4.1666665 C 12.799386,4.1666665 3.513672,13.452381 3.513672,25 C 3.513672,36.54762 12.799386,45.833335 24.347006,45.833335 C 35.894626,45.833335 45.180341,36.54762 45.180341,25 C 45.180341,13.452381 35.894626,4.1666665 24.347006,4.1666665 L 24.347006,4.1666665 z M 24.347006,30.000001 C 21.608911,30.000001 19.347006,27.738096 19.347006,25 C 19.347006,22.261905 21.608911,20 24.347006,20 C 27.085101,20 29.347006,22.261905 29.347006,25 C 29.347006,27.738096 27.085101,30.000001 24.347006,30.000001 z "
       id="path3419" />
    <path
       inkscape:r_cy="true"
       inkscape:r_cx="true"
       id="path3431"
       d="M 24.347006,4.1666665 C 12.799386,4.1666665 3.513672,13.452381 3.513672,25 C 3.513672,36.54762 12.799386,45.833335 24.347006,45.833335 C 35.894626,45.833335 45.180341,36.54762 45.180341,25 C 45.180341,13.452381 35.894626,4.1666665 24.347006,4.1666665 L 24.347006,4.1666665 z M 24.347006,30.000001 C 21.608911,30.000001 19.347006,27.738096 19.347006,25 C 19.347006,22.261905 21.608911,20 24.347006,20 C 27.085101,20 29.347006,22.261905 29.347006,25 C 29.347006,27.738096 27.085101,30.000001 24.347006,30.000001 z "
       style="opacity:0.62285713;fill:url(#radialGradient23374);fill-opacity:1;fill-rule:nonzero;stroke:none;stroke-miterlimit:4;stroke-opacity:1" />
    <path
       inkscape:r_cy="true"
       inkscape:r_cx="true"
       style="opacity:0.37142861;fill:url(#radialGradient23371);fill-opacity:1;fill-rule:nonzero;stroke:none;stroke-miterlimit:4;stroke-opacity:1"
       d="M 24.347006,4.1666665 C 12.799386,4.1666665 3.513672,13.452381 3.513672,25 C 3.513672,36.54762 12.799386,45.833335 24.347006,45.833335 C 35.894626,45.833335 45.180341,36.54762 45.180341,25 C 45.180341,13.452381 35.894626,4.1666665 24.347006,4.1666665 L 24.347006,4.1666665 z M 24.347006,30.000001 C 21.608911,30.000001 19.347006,27.738096 19.347006,25 C 19.347006,22.261905 21.608911,20 24.347006,20 C 27.085101,20 29.347006,22.261905 29.347006,25 C 29.347006,27.738096 27.085101,30.000001 24.347006,30.000001 z "
       id="path3441" />
    <path
       inkscape:r_cy="true"
       inkscape:r_cx="true"
       id="path3445"
       d="M 24.347006,4.1666665 C 12.799386,4.1666665 3.513672,13.452381 3.513672,25 C 3.513672,36.54762 12.799386,45.833335 24.347006,45.833335 C 35.894626,45.833335 45.180341,36.54762 45.180341,25 C 45.180341,13.452381 35.894626,4.1666665 24.347006,4.1666665 L 24.347006,4.1666665 z M 24.347006,30.000001 C 21.608911,30.000001 19.347006,27.738096 19.347006,25 C 19.347006,22.261905 21.608911,20 24.347006,20 C 27.085101,20 29.347006,22.261905 29.347006,25 C 29.347006,27.738096 27.085101,30.000001 24.347006,30.000001 z "
       style="opacity:0.23428572;fill:url(#radialGradient23368);fill-opacity:1;fill-rule:nonzero;stroke:none;stroke-miterlimit:4;stroke-opacity:1" />
    <g
       id="g2869"
       transform="matrix(0.383782,0,0,0.3108051,6.3348925,-0.5302753)">
      <path
         id="path1320"
         d="M 99.625,12.09375 C 99.105383,11.941731 98.471942,12.043613 97.6875,12.5 C 92.171703,15.560722 85.742296,16.077219 81.03125,16.625 C 76.369649,17.167032 72.626628,17.321035 68.03125,17.125 C 63.8035,16.944648 61.047152,16.719822 58.5625,16.25 C 56.771658,15.911371 54.388704,14.735968 53.34375,15.84375 C 56.281428,22.604651 57.403489,32.067276 57.25,37.3125 C 56.962653,47.047733 55.967901,54.146267 54.53125,62.375 C 53.129555,70.403518 50.340782,77.669782 47.78125,85.1875 C 45.937915,91.18111 42.051846,85.195549 39.28125,83.96875 C 35.288078,82.200603 31.773198,82.079026 27.90625,83.96875 C 24.039301,85.858478 21.875565,88.645337 20.90625,93.03125 C 19.958733,97.318533 22.150252,102.62958 25.71875,105.53125 C 29.184752,108.34958 34.311368,108.72806 38.46875,107.40625 C 42.571848,105.98527 46.27195,102.11349 47.8125,98.09375 C 48.601239,96.224308 49.066001,95.397022 50,92.4375 C 50.933997,89.477981 52.180362,85.140907 53.21875,81.4375 C 55.129775,74.621836 57.781625,68.411371 59.4375,53.0625 C 59.769581,50.360894 60.483701,43.788285 60.625,37.3125 C 61.668028,37.399982 62.868259,37.776515 63.90625,37.9375 C 66.336318,38.314388 69.045129,38.446076 73.15625,38.46875 C 77.624861,38.493392 81.245416,38.184096 85.75,37.46875 C 89.898434,36.809962 95.399828,36.055272 100.3125,33.46875 C 100.68312,39.313054 100.56114,48.398338 100.125,52.75 C 99.325212,60.730016 97.138421,74.145599 94.96875,81.8125 C 93.874635,85.678729 92.71004,88.602311 91.5,91.78125 C 89.900026,94.669326 86.24912,89.908831 83.84375,88.84375 C 79.850575,87.07561 76.335698,86.92277 72.46875,88.8125 C 68.601798,90.70223 66.406815,93.520329 65.4375,97.90625 C 64.48998,102.19353 66.681501,107.47333 70.25,110.375 C 73.715999,113.19333 78.842616,113.57181 83,112.25 C 87.103095,110.82902 90.803196,106.95725 92.34375,102.9375 C 96.516892,91.69934 98.735951,83.436426 99.78125,79.15625 C 101.2332,73.21092 103.98769,60.243296 104.28125,44 C 104.33618,40.960696 104.33279,32.636998 103.65625,25.8125 C 103.39938,23.221345 101.18385,12.549807 99.625,12.09375 z M 99.21875,24.3125 C 99.710724,26.251865 99.818296,28.009026 100,30.03125 C 94.915267,32.945329 89.070883,33.746364 84.71875,34.4375 C 80.214167,35.152848 76.593611,35.430894 72.125,35.40625 C 68.013885,35.383576 65.305066,35.251886 62.875,34.875 C 62.192947,34.769218 61.435907,34.547828 60.6875,34.375 C 60.660596,31.976918 60.522336,29.677266 60.21875,27.6875 C 66.608761,28.154984 69.160261,28.204683 71.96875,28.25 C 76.791692,28.326461 82.74516,27.691932 86.28125,27.09375 C 90.650694,26.354595 96.444939,24.810082 99.21875,24.3125 z"
         style="fill:#000000" />
      <path
         id="path2279"
         d="M 35.500372,98.292333 C 31.326139,102.05187 25.664554,102.50418 22.862905,99.301948 C 20.061255,96.099714 21.175237,90.449577 25.34947,86.690036 C 29.523702,82.930495 35.185287,82.478188 37.986936,85.680422 C 40.778964,88.871659 39.685866,94.49172 35.54109,98.255511"
         style="fill:url(#radialGradient2877);fill-opacity:1;stroke:none;stroke-width:2.5;stroke-linecap:round;stroke-linejoin:round;stroke-miterlimit:4;stroke-opacity:1" />
      <path
         id="path2281"
         d="M 80.049162,103.00369 C 75.874929,106.76323 70.213344,107.21554 67.411695,104.01331 C 64.610045,100.81107 65.724027,95.160934 69.89826,91.401393 C 74.072492,87.641852 79.734077,87.189545 82.535726,90.391779 C 85.327754,93.583016 84.234656,99.203077 80.08988,102.96687"
         style="fill:url(#radialGradient2879);fill-opacity:1;stroke:none;stroke-width:2.5;stroke-linecap:round;stroke-linejoin:round;stroke-miterlimit:4;stroke-opacity:1" />
      <path
         sodipodi:nodetypes="ccsscscssssc"
         id="path5636"
         d="M 98.889472,12.807526 C 98.646484,12.856659 98.364801,12.978705 98.014472,13.182526 C 92.357523,16.321574 85.832169,16.824379 81.139472,17.370026 C 76.455306,17.914682 72.667082,18.067169 68.045722,17.870026 C 66.563852,17.806811 65.442285,17.73435 64.264472,17.651276 C 68.676762,19.923491 72.923055,21.067446 77.176762,22.047417 C 88.7403,24.711429 94.351939,22.990463 102.35822,22.338776 C 101.99312,20.427372 101.54899,18.20387 101.01447,16.338776 C 100.71789,15.303922 100.40583,14.393196 100.10822,13.745026 C 99.959419,13.420941 99.79131,13.186882 99.670722,13.026276 C 99.550134,12.86567 99.474229,12.827003 99.514472,12.838776 C 99.347919,12.790049 99.13246,12.758393 98.889472,12.807526 z"
         style="fill:url(#linearGradient2881);fill-opacity:1" />
      <path
         sodipodi:nodetypes="csccscscccscc"
         id="path7829"
         d="M 55.256123,15.807526 C 54.961178,15.786898 54.689542,15.801252 54.318623,15.838776 C 54.069479,15.863981 53.939444,15.956336 53.787373,16.057526 C 56.659461,22.883258 57.75301,32.105567 57.599873,37.338776 C 57.311873,47.096179 56.319139,54.227223 54.881123,62.463776 C 53.472918,70.529587 50.778771,77.683312 48.224873,85.182526 C 48.590532,84.832226 49.543329,83.135271 50.03451,81.62599 C 52.577289,73.812636 54.365143,70.551978 56.756123,55.588776 C 56.755729,55.578363 56.755729,55.567939 56.756123,55.557526 L 56.818623,55.307526 C 56.820264,55.297118 56.816985,55.286682 56.818623,55.276276 C 59.123108,40.640201 59.153968,27.851666 56.099873,15.995026 C 55.781042,15.913204 55.4911,15.82396 55.256123,15.807526 z"
         style="fill:url(#linearGradient2883);fill-opacity:1" />
      <path
         sodipodi:nodetypes="csssssssccsscssccsscssssssssssssssccssssssssssc"
         id="path7834"
         d="M 99.875,24.84375 C 99.863093,24.852559 99.852558,24.86309 99.84375,24.875 C 99.833365,24.873907 99.822888,24.873906 99.8125,24.875 C 99.800593,24.883809 99.790058,24.89434 99.78125,24.90625 C 99.780159,24.916639 99.780156,24.927112 99.78125,24.9375 C 99.769343,24.946309 99.758808,24.95684 99.75,24.96875 C 99.748909,24.979139 99.748906,24.989612 99.75,25 C 99.748909,25.010389 99.748906,25.020862 99.75,25.03125 C 100.15057,26.833665 100.28732,29.089424 100.5,31.54821 C 100.01979,31.465631 99.494275,31.54102 98.8125,31.98571 C 93.575299,35.249725 90.074668,35.506736 85.522301,36.22967 C 81.017719,36.945018 74.656111,37.180894 70.1875,37.15625 C 66.91235,37.138187 64.898935,36.967228 62.84375,36.75 C 64.944485,37.094692 67.061581,37.373671 70.46875,37.5625 C 74.930583,37.809777 78.432607,37.835264 82.96724,37.34526 C 87.549976,36.850061 93.950413,36.280249 99.34375,33.28125 C 99.879848,32.968499 100.42678,32.862192 100.65625,33.03125 C 101.04708,38.879382 100.91247,48.197768 100.46875,52.625 C 99.667713,60.617475 97.488398,74.029843 95.3125,81.71875 C 94.2991,85.299782 93.267534,88.061692 92.15625,90.96875 C 92.144343,90.977557 92.133808,90.98809 92.125,91 C 92.123909,91.010387 92.123906,91.020862 92.125,91.03125 C 92.123909,91.041637 92.123906,91.052112 92.125,91.0625 C 92.133811,91.074409 92.14434,91.084942 92.15625,91.09375 C 92.155159,91.104137 92.155156,91.114612 92.15625,91.125 C 92.165061,91.136909 92.17559,91.147442 92.1875,91.15625 C 92.197891,91.157343 92.208362,91.157344 92.21875,91.15625 C 92.227561,91.168159 92.23809,91.178692 92.25,91.1875 C 92.260391,91.188593 92.270862,91.188594 92.28125,91.1875 C 92.291641,91.188593 92.302112,91.188594 92.3125,91.1875 C 92.324413,91.178691 92.334942,91.16816 92.34375,91.15625 C 92.354141,91.157343 92.364612,91.157344 92.375,91.15625 C 92.386913,91.147441 92.397442,91.13691 92.40625,91.125 C 92.869921,90.495375 93.519933,89.515298 94.1875,87.6875 C 95.803756,83.262198 98.297773,73.893903 100.375,59.625 L 100.40625,59.34375 C 101.36742,52.29441 101.66207,44.893606 101.5,37.28125 C 101.46268,35.528276 101.00121,28.769473 100.84375,27.78125 C 100.65817,26.616515 100.40598,25.702112 100.15625,25.125 C 100.12921,25.062502 100.11796,25.029584 100.09375,25 C 100.06955,24.970417 100.04464,24.96108 100.03125,24.9375 C 100.03235,24.927113 100.03235,24.916638 100.03125,24.90625 C 100.02244,24.894341 100.01191,24.883808 100,24.875 C 99.989615,24.873907 99.979138,24.873906 99.96875,24.875 C 99.959945,24.863091 99.94941,24.852558 99.9375,24.84375 C 99.927115,24.842657 99.916638,24.842656 99.90625,24.84375 C 99.895865,24.842657 99.885388,24.842656 99.875,24.84375 z"
         style="fill:url(#linearGradient2885);fill-opacity:1" />
    </g>
  </g>
</svg>
